<svg width="32" height="32" viewBox="0 0 32 32" fill="none" xmlns="http://www.w3.org/2000/svg">
  <!-- Background -->
  <rect width="32" height="32" rx="6" fill="#2563eb"/>
  
  <!-- Grid lines -->
  <g stroke="#ffffff" stroke-width="1" opacity="0.8">
    <!-- Vertical lines -->
    <line x1="8" y1="4" x2="8" y2="28"/>
    <line x1="16" y1="4" x2="16" y2="28"/>
    <line x1="24" y1="4" x2="24" y2="28"/>
    
    <!-- Horizontal lines -->
    <line x1="4" y1="8" x2="28" y2="8"/>
    <line x1="4" y1="16" x2="28" y2="16"/>
    <line x1="4" y1="24" x2="28" y2="24"/>
  </g>
  
  <!-- Bold grid borders -->
  <g stroke="#ffffff" stroke-width="2" fill="none">
    <rect x="4" y="4" width="24" height="24"/>
    <line x1="4" y1="14" x2="28" y2="14"/>
    <line x1="4" y1="18" x2="28" y2="18"/>
    <line x1="14" y1="4" x2="14" y2="28"/>
    <line x1="18" y1="4" x2="18" y2="28"/>
  </g>
  
  <!-- Sample numbers -->
  <g fill="#ffffff" font-family="system-ui, -apple-system, sans-serif" font-weight="600" font-size="8" text-anchor="middle" dominant-baseline="central">
    <text x="6" y="6">5</text>
    <text x="10" y="6">3</text>
    <text x="22" y="6">7</text>
    <text x="6" y="10">6</text>
    <text x="18" y="10">1</text>
    <text x="26" y="10">9</text>
    <text x="14" y="22">8</text>
    <text x="22" y="22">4</text>
    <text x="26" y="26">2</text>
  </g>
</svg>